<svg width="16" height="12" viewBox="0 0 16 12" fill="none" xmlns="http://www.w3.org/2000/svg">
<path d="M15.8622 9.58241C15.6365 9.35666 15.3959 9.15251 15.1419 8.96973C14.6008 9.5947 13.9654 10.12 13.249 10.5335C12.1394 11.1743 10.8774 11.5164 9.59668 11.5245C10.2767 11.7987 11.0099 11.9426 11.7653 11.9426C13.3129 11.9426 14.7679 11.3399 15.8623 10.2456C15.9502 10.1577 15.9996 10.0384 15.9996 9.91413C15.9996 9.78982 15.9502 9.67035 15.8622 9.58241Z" fill="#FF9F66"/>
<path d="M0.857656 8.96973C0.603656 9.15254 0.363063 9.35669 0.137313 9.58241C0.0494063 9.67035 0 9.78982 0 9.91413C0 10.0384 0.0494063 10.1577 0.137313 10.2456C1.23166 11.3399 2.68666 11.9426 4.23428 11.9426C4.98966 11.9426 5.72284 11.7987 6.40291 11.5245C5.12213 11.5164 3.86019 11.1743 2.75044 10.5334C2.03412 10.12 1.39875 9.5947 0.857656 8.96973Z" fill="#FF9F66"/>
<path d="M3.21999 9.72164C3.99927 10.1716 4.90524 10.4734 5.87115 10.5608C4.20212 9.63705 3.30009 8.35452 2.87549 7.61911C2.40855 6.81043 2.09296 5.93421 1.93602 5.01221C1.46974 5.03221 1.00555 5.10183 0.55393 5.22186C0.34768 5.27111 0.194336 5.45677 0.194336 5.67808C0.194336 5.71908 0.199711 5.75989 0.210336 5.79949C0.689086 7.58518 1.85802 8.93543 3.21999 9.72164Z" fill="#FF9F66"/>
<path d="M10.1294 10.5608C11.0953 10.4733 12.0013 10.1716 12.7806 9.72161C14.1425 8.93539 15.3115 7.58514 15.7902 5.79949C15.8009 5.75989 15.8062 5.71908 15.8062 5.67808C15.8062 5.45677 15.6529 5.27111 15.4466 5.22186C14.995 5.10183 14.5308 5.03218 14.0646 5.01221C13.9076 5.93421 13.592 6.81043 13.1251 7.61911C12.7005 8.35452 11.7995 9.63643 10.1294 10.5608Z" fill="#FF9F66"/>
<path d="M5.85287 9.45418C5.37921 8.68908 4.64361 7.22043 4.64361 5.20721C4.64361 4.18702 4.83246 3.19468 5.2044 2.25318C4.69208 1.96096 4.14277 1.73371 3.57086 1.58052C3.32074 1.51358 3.06383 1.6619 2.9968 1.91193C2.48518 3.82061 2.84602 5.69514 3.6863 7.15039C4.19646 8.03399 4.92908 8.84136 5.85287 9.45418Z" fill="#FF9F66"/>
<path d="M10.1465 9.45447C11.0705 8.84162 11.8033 8.03412 12.3135 7.1504C13.1538 5.69512 13.5146 3.82062 13.003 1.91194C12.936 1.66191 12.679 1.51356 12.4289 1.58053C11.8569 1.73372 11.3076 1.96103 10.7952 2.25331C11.1671 3.19475 11.3559 4.18706 11.3559 5.20722C11.356 7.22215 10.619 8.69122 10.1465 9.45447Z" fill="#FF9F66"/>
<path d="M8.33102 0.168563C8.24312 0.0806564 8.12362 0.03125 7.99931 0.03125C7.87499 0.03125 7.75577 0.0806564 7.66787 0.168563C6.44009 1.39634 5.58099 3.16872 5.58099 5.20703C5.58099 7.24628 6.44106 9.01872 7.66787 10.2455C7.75577 10.3334 7.87527 10.3828 7.99959 10.3828C8.1239 10.3828 8.24312 10.3334 8.33102 10.2455C9.55752 9.01903 10.4179 7.24675 10.4179 5.20703C10.4179 3.16778 9.55818 1.39566 8.33102 0.168563Z" fill="#FF9F66"/>
</svg>
