<svg width="87" height="24" viewBox="0 0 87 24" fill="none" xmlns="http://www.w3.org/2000/svg">
<path d="M10.9375 12.6562C10.8333 12.9062 10.7031 13.0625 10.5469 13.125C10.3906 13.1771 10.2292 13.2031 10.0625 13.2031C9.91667 13.1927 9.76042 13.1771 9.59375 13.1562C9.4375 13.125 9.28646 13.1198 9.14062 13.1406C8.83854 13.349 8.61458 13.6042 8.46875 13.9062C8.32292 14.1979 8.20312 14.5156 8.10938 14.8594C8.01562 15.1927 7.92708 15.5312 7.84375 15.875C7.77083 16.2083 7.65104 16.5208 7.48438 16.8125C7.36979 17.0208 7.27604 17.2396 7.20312 17.4688C7.13021 17.7083 7.05208 17.9427 6.96875 18.1719C6.89583 18.4115 6.80208 18.6354 6.6875 18.8438C6.58333 19.0625 6.43229 19.25 6.23438 19.4062C6.28646 19.4896 6.29688 19.5677 6.26562 19.6406C6.23438 19.7135 6.19271 19.776 6.14062 19.8281L6.07812 19.9062L5.98438 20C6.01562 20.2292 5.96354 20.4375 5.82812 20.625C5.70312 20.8229 5.57812 21.0104 5.45312 21.1875C5.40104 21.2396 5.35417 21.2969 5.3125 21.3594C5.28125 21.4219 5.24479 21.4948 5.20312 21.5781C4.97396 21.5052 4.80729 21.5208 4.70312 21.625L4.59375 22.125L4.48438 21.9531C4.40104 22.151 4.28646 22.3021 4.14062 22.4062C4.00521 22.5104 3.85417 22.5885 3.6875 22.6406C3.53125 22.6927 3.35938 22.7344 3.17188 22.7656C2.99479 22.8073 2.82292 22.8594 2.65625 22.9219C2.55208 22.974 2.46354 23.0312 2.39062 23.0938C2.30729 23.1667 2.22396 23.2604 2.14062 23.375C1.78646 23.3854 1.50521 23.2917 1.29688 23.0938C1.08854 22.8958 0.911458 22.6667 0.765625 22.4062C0.838542 22.1458 0.895833 21.8802 0.9375 21.6094C0.96875 21.3385 1.01042 21.0677 1.0625 20.7969C1.10417 20.5365 1.16667 20.276 1.25 20.0156C1.32292 19.7656 1.43229 19.5208 1.57812 19.2812C1.54688 19.1771 1.54167 19.0781 1.5625 18.9844C1.57292 18.8906 1.59896 18.8021 1.64062 18.7188C1.68229 18.6354 1.73438 18.5521 1.79688 18.4688C1.84896 18.3958 1.89062 18.3177 1.92188 18.2344C1.97396 18.1406 1.98438 18.0365 1.95312 17.9219C2.11979 17.6719 2.27604 17.4271 2.42188 17.1875C2.56771 16.9583 2.71875 16.7292 2.875 16.5C3.03125 16.2708 3.19792 16.0521 3.375 15.8438C3.5625 15.625 3.77604 15.4219 4.01562 15.2344L4.0625 14.9844C4.29167 14.8385 4.49479 14.6667 4.67188 14.4688C4.85938 14.2708 5.05729 14.0833 5.26562 13.9062C5.65104 13.5833 6.03125 13.3125 6.40625 13.0938C6.78125 12.8646 7.21875 12.7083 7.71875 12.625C7.8125 12.5729 7.85417 12.5052 7.84375 12.4219C7.84375 12.3281 7.83854 12.2344 7.82812 12.1406C7.81771 12.0365 7.82292 11.9375 7.84375 11.8438C7.86458 11.75 7.94792 11.6771 8.09375 11.625C8.10417 11.5625 8.125 11.4792 8.15625 11.375C8.1875 11.2708 8.20833 11.1667 8.21875 11.0625C8.23958 10.9583 8.23958 10.8646 8.21875 10.7812C8.20833 10.6979 8.15625 10.651 8.0625 10.6406C7.97917 10.6302 7.90625 10.6198 7.84375 10.6094C7.78125 10.599 7.73438 10.5521 7.70312 10.4688C7.40104 10.4271 7.09375 10.3646 6.78125 10.2812C6.46875 10.1875 6.14583 10.125 5.8125 10.0938C5.77083 9.95833 5.69271 9.85417 5.57812 9.78125C5.47396 9.69792 5.35417 9.63021 5.21875 9.57812C5.08333 9.51562 4.94792 9.45833 4.8125 9.40625C4.67708 9.35417 4.5625 9.28125 4.46875 9.1875C4.3125 9.04167 4.15625 8.88542 4 8.71875C3.84375 8.55208 3.70312 8.375 3.57812 8.1875C3.45312 8 3.34896 7.80208 3.26562 7.59375C3.18229 7.375 3.13542 7.14583 3.125 6.90625L2.84375 6.48438L2.95312 6.42188C2.90104 6.34896 2.86458 6.28646 2.84375 6.23438C2.82292 6.17188 2.82812 6.09896 2.85938 6.01562L2.95312 5.96875C2.92188 5.86458 2.92188 5.77083 2.95312 5.6875C2.97396 5.60417 3 5.52083 3.03125 5.4375C3.07292 5.35417 3.09896 5.27604 3.10938 5.20312C3.13021 5.11979 3.11458 5.03125 3.0625 4.9375C3.08333 4.76042 3.13542 4.60417 3.21875 4.46875C3.30208 4.32292 3.39062 4.16667 3.48438 4C3.56771 3.86458 3.63542 3.73438 3.6875 3.60938C3.73958 3.47396 3.75521 3.32812 3.73438 3.17188C3.99479 2.91146 4.27604 2.60417 4.57812 2.25C4.89062 1.88542 5.21875 1.57292 5.5625 1.3125C5.90625 1.04167 6.27083 0.864583 6.65625 0.78125C7.05208 0.6875 7.47396 0.776042 7.92188 1.04688C8.05729 0.942708 8.14583 0.927083 8.1875 1C8.23958 1.07292 8.27604 1.15625 8.29688 1.25C8.30729 1.29167 8.31771 1.32292 8.32812 1.34375C8.34896 1.36458 8.38542 1.36979 8.4375 1.35938C8.67708 1.51562 8.84375 1.69271 8.9375 1.89062C9.04167 2.07812 9.11979 2.27604 9.17188 2.48438C9.23438 2.68229 9.29688 2.88021 9.35938 3.07812C9.42188 3.27604 9.53646 3.45312 9.70312 3.60938C9.72396 4.10938 9.73958 4.59896 9.75 5.07812C9.76042 5.55729 9.8125 6.04167 9.90625 6.53125C9.8125 7.125 9.72396 7.70833 9.64062 8.28125C9.55729 8.85417 9.49479 9.4375 9.45312 10.0312C9.55729 10.1562 9.64062 10.3125 9.70312 10.5C9.76562 10.6875 9.79688 10.8698 9.79688 11.0469L9.65625 11.2969C9.67708 11.3698 9.65104 11.4167 9.57812 11.4375C9.51562 11.4583 9.47917 11.4219 9.46875 11.3281L9.45312 11.2969C9.45312 11.2552 9.42708 11.2344 9.375 11.2344C9.29167 11.2448 9.22917 11.276 9.1875 11.3281C9.14583 11.3802 9.11458 11.4479 9.09375 11.5312C9.07292 11.6042 9.05208 11.6823 9.03125 11.7656C9.02083 11.8385 9.00521 11.901 8.98438 11.9531C8.93229 12.0677 8.92188 12.1615 8.95312 12.2344C8.98438 12.3073 9.01562 12.401 9.04688 12.5156C9.25521 12.4948 9.47396 12.5052 9.70312 12.5469C9.94271 12.5885 10.151 12.6615 10.3281 12.7656L10.6406 12.4688C10.651 12.4896 10.6667 12.5208 10.6875 12.5625C10.7188 12.5938 10.7448 12.6198 10.7656 12.6406C10.776 12.6615 10.7865 12.6719 10.7969 12.6719C10.8177 12.6719 10.8646 12.6667 10.9375 12.6562ZM8.79688 5.34375C8.74479 5.0625 8.68229 4.78125 8.60938 4.5C8.53646 4.20833 8.48958 3.90104 8.46875 3.57812L7.64062 1.95312C7.46354 2.00521 7.28125 2.02083 7.09375 2C6.91667 1.96875 6.75521 1.97917 6.60938 2.03125C6.54688 2.09375 6.48438 2.125 6.42188 2.125C6.35938 2.11458 6.29167 2.10938 6.21875 2.10938C6.15625 2.09896 6.08854 2.10938 6.01562 2.14062C5.95312 2.17188 5.89062 2.26042 5.82812 2.40625C5.77604 2.51042 5.73438 2.61979 5.70312 2.73438C5.68229 2.83854 5.63542 2.94271 5.5625 3.04688C5.41667 3.11979 5.30208 3.20312 5.21875 3.29688C5.13542 3.39062 5.07292 3.49479 5.03125 3.60938C5 3.72396 4.97917 3.85417 4.96875 4C4.96875 4.14583 4.96875 4.30729 4.96875 4.48438C4.84375 4.45312 4.76042 4.44792 4.71875 4.46875C4.6875 4.48958 4.64583 4.55208 4.59375 4.65625C4.5625 4.72917 4.51562 4.79688 4.45312 4.85938C4.40104 4.92188 4.31771 4.93229 4.20312 4.89062C4.15104 5.00521 4.09896 5.125 4.04688 5.25C3.99479 5.36458 3.95833 5.47917 3.9375 5.59375C3.91667 5.72917 3.92708 5.85417 3.96875 5.96875C4.01042 6.07292 4.11979 6.17708 4.29688 6.28125C4.22396 6.39583 4.1875 6.48438 4.1875 6.54688C4.19792 6.60938 4.21354 6.69792 4.23438 6.8125C4.24479 6.88542 4.24479 6.96354 4.23438 7.04688C4.23438 7.13021 4.19271 7.20833 4.10938 7.28125C4.15104 7.32292 4.23438 7.34896 4.35938 7.35938C4.51562 7.76562 4.73958 8.08333 5.03125 8.3125C5.33333 8.53125 5.66146 8.71875 6.01562 8.875C6.36979 9.02083 6.73438 9.15625 7.10938 9.28125C7.49479 9.39583 7.84896 9.54688 8.17188 9.73438C8.21354 9.65104 8.25521 9.57292 8.29688 9.5C8.34896 9.42708 8.39062 9.35417 8.42188 9.28125C8.46354 9.20833 8.48438 9.13021 8.48438 9.04688C8.48438 8.96354 8.45833 8.86979 8.40625 8.76562C8.53125 8.68229 8.61458 8.59896 8.65625 8.51562C8.70833 8.42188 8.73438 8.32292 8.73438 8.21875C8.73438 8.11458 8.71875 8.01042 8.6875 7.90625C8.65625 7.79167 8.63542 7.67708 8.625 7.5625C8.59375 7.41667 8.60417 7.25521 8.65625 7.07812C8.79167 6.75521 8.85938 6.45312 8.85938 6.17188C8.86979 5.89062 8.84896 5.61458 8.79688 5.34375ZM7.25 13.7812C7.11458 13.75 6.97917 13.7604 6.84375 13.8125C6.71875 13.8542 6.60938 13.9271 6.51562 14.0312C6.53646 14.0521 6.5625 14.0781 6.59375 14.1094C6.625 14.1406 6.66667 14.1979 6.71875 14.2812C6.61458 14.2917 6.50521 14.3021 6.39062 14.3125C6.27604 14.3125 6.17188 14.3333 6.07812 14.375C5.99479 14.4062 5.92708 14.4479 5.875 14.5C5.83333 14.5521 5.80208 14.6458 5.78125 14.7812C5.58333 14.7917 5.43229 14.849 5.32812 14.9531C5.22396 15.0573 5.13542 15.1719 5.0625 15.2969C4.98958 15.4219 4.91146 15.5417 4.82812 15.6562C4.75521 15.7604 4.64062 15.8229 4.48438 15.8438C4.42188 16.0521 4.32812 16.2344 4.20312 16.3906C4.07812 16.5573 3.94792 16.7135 3.8125 16.8594C3.67708 17.0156 3.55729 17.1771 3.45312 17.3438C3.35938 17.5208 3.3125 17.7292 3.3125 17.9688C3.29167 17.9896 3.30729 18.0052 3.35938 18.0156C3.45312 18.0573 3.5 18.1302 3.5 18.2344C3.38542 18.3073 3.28646 18.3698 3.20312 18.4219C3.11979 18.4844 3.03646 18.5417 2.95312 18.5938C2.89062 18.6354 2.85938 18.6667 2.85938 18.6875C2.85938 18.7188 2.875 18.7604 2.90625 18.8125C2.92708 18.8333 2.97396 18.901 3.04688 19.0156L2.65625 19.2656L2.96875 19.8906C2.92708 19.9115 2.89062 19.9323 2.85938 19.9531C2.82812 19.9844 2.79167 20.0104 2.75 20.0312C2.72917 20.0521 2.68229 20.0729 2.60938 20.0938C2.63021 20.375 2.60417 20.651 2.53125 20.9219C2.44792 21.1927 2.42188 21.4688 2.45312 21.75C2.84896 21.7292 3.20312 21.599 3.51562 21.3594C3.83854 21.1198 4.13542 20.8542 4.40625 20.5625C4.41667 20.4479 4.44271 20.3438 4.48438 20.25C4.53646 20.1667 4.61979 20.099 4.73438 20.0469C4.79688 19.7656 4.90625 19.4896 5.0625 19.2188C5.21875 18.9583 5.4375 18.7604 5.71875 18.625C5.6875 18.5625 5.68229 18.5 5.70312 18.4375C5.72396 18.375 5.75521 18.3125 5.79688 18.25C5.82812 18.1875 5.84375 18.1354 5.84375 18.0938C5.85417 18.0521 5.82812 17.9948 5.76562 17.9219C5.80729 17.8385 5.84896 17.776 5.89062 17.7344C5.93229 17.7031 5.98438 17.6458 6.04688 17.5625C6.07812 17.5208 6.09375 17.4792 6.09375 17.4375C6.09375 17.4062 6.05208 17.3542 5.96875 17.2812C6.08333 17.2083 6.14583 17.1406 6.15625 17.0781C6.17708 17.0156 6.19792 16.9219 6.21875 16.7969C6.23958 16.7135 6.26562 16.625 6.29688 16.5312C6.33854 16.4479 6.41667 16.3906 6.53125 16.3594C6.55208 16.2552 6.56771 16.1406 6.57812 16.0156C6.58854 15.901 6.60417 15.7917 6.625 15.6875C6.65625 15.5729 6.69792 15.4688 6.75 15.375C6.80208 15.2812 6.88021 15.2031 6.98438 15.1406C6.99479 15.0781 7.00521 15.0312 7.01562 15C7.02604 14.9688 7.03125 14.9427 7.03125 14.9219C7.03125 14.8906 7.01562 14.8646 6.98438 14.8438C6.96354 14.8125 6.91667 14.776 6.84375 14.7344C7.07292 14.651 7.19792 14.5625 7.21875 14.4688C7.23958 14.3646 7.24479 14.2083 7.23438 14C7.23438 13.9688 7.23438 13.9375 7.23438 13.9062C7.23438 13.8646 7.23958 13.8229 7.25 13.7812ZM21.9375 11.0938C21.9792 11.25 21.9635 11.3854 21.8906 11.5C21.8177 11.6042 21.7188 11.6979 21.5938 11.7812C21.4792 11.8646 21.349 11.9427 21.2031 12.0156C21.0677 12.0781 20.9531 12.151 20.8594 12.2344C20.3906 12.3385 19.9635 12.4167 19.5781 12.4688C19.2031 12.5104 18.7865 12.5677 18.3281 12.6406C18.1927 12.6615 18.0625 12.6615 17.9375 12.6406C17.8229 12.6094 17.7031 12.599 17.5781 12.6094C17.5052 12.6094 17.4375 12.6094 17.375 12.6094C17.3125 12.599 17.25 12.599 17.1875 12.6094C16.9479 12.6302 16.7917 12.7135 16.7188 12.8594C16.6458 12.9948 16.5833 13.1562 16.5312 13.3438C16.4896 13.5208 16.4323 13.6927 16.3594 13.8594C16.2969 14.0156 16.1562 14.125 15.9375 14.1875C15.9167 14.2396 15.9219 14.2865 15.9531 14.3281C15.9948 14.3698 16.026 14.4062 16.0469 14.4375C15.8698 14.4896 15.75 14.5833 15.6875 14.7188C15.6354 14.8542 15.5885 14.9896 15.5469 15.125C15.5052 15.2604 15.4427 15.375 15.3594 15.4688C15.2865 15.5625 15.1406 15.5938 14.9219 15.5625C14.599 15.9062 14.2188 16.1823 13.7812 16.3906C13.3438 16.6094 12.8906 16.75 12.4219 16.8125C12.3385 16.7708 12.2552 16.7188 12.1719 16.6562C12.099 16.5938 12.0208 16.5365 11.9375 16.4844C11.8646 16.4323 11.7812 16.3906 11.6875 16.3594C11.6042 16.3385 11.5052 16.3385 11.3906 16.3594C11.3802 16.1406 11.3385 15.9375 11.2656 15.75C11.1823 15.5625 11.0781 15.3854 10.9531 15.2188C10.9323 15.0312 10.9583 14.8594 11.0312 14.7031C11.0938 14.5365 11.1615 14.375 11.2344 14.2188C11.3073 14.0625 11.3698 13.9062 11.4219 13.75C11.4635 13.5833 11.4531 13.3958 11.3906 13.1875C11.4948 13.125 11.5625 13.0521 11.5938 12.9688C11.6354 12.8854 11.6615 12.8021 11.6719 12.7188C11.6927 12.625 11.7188 12.5417 11.75 12.4688C11.7812 12.3854 11.8542 12.3177 11.9688 12.2656C11.8854 12.0156 11.8958 11.8333 12 11.7188C12.1146 11.5938 12.25 11.4844 12.4062 11.3906C12.5625 11.2969 12.7083 11.1927 12.8438 11.0781C12.9792 10.9635 13.0312 10.7917 13 10.5625C13.0625 10.5 13.1354 10.4479 13.2188 10.4062C13.3021 10.3646 13.3802 10.3281 13.4531 10.2969C13.5365 10.2552 13.6146 10.2135 13.6875 10.1719C13.7604 10.1302 13.8281 10.0729 13.8906 10C13.8177 9.94792 13.7812 9.89583 13.7812 9.84375C13.7917 9.79167 13.8073 9.73958 13.8281 9.6875C13.849 9.625 13.8698 9.5625 13.8906 9.5C13.9219 9.4375 13.9219 9.375 13.8906 9.3125C14.1719 9.35417 14.4167 9.31771 14.625 9.20312C14.8438 9.07812 15.0469 8.95312 15.2344 8.82812C15.4323 8.70312 15.6302 8.61458 15.8281 8.5625C16.026 8.51042 16.2552 8.57292 16.5156 8.75C16.5365 8.82292 16.5677 8.93229 16.6094 9.07812C16.6615 9.21354 16.7083 9.35417 16.75 9.5C16.8021 9.64583 16.849 9.78646 16.8906 9.92188C16.9323 10.0573 16.9583 10.1562 16.9688 10.2188C16.9688 10.2708 16.9688 10.3542 16.9688 10.4688C16.9688 10.5833 16.9688 10.7083 16.9688 10.8438C16.9688 10.9688 16.9688 11.0885 16.9688 11.2031C16.9688 11.3177 16.9688 11.4062 16.9688 11.4688C17.2708 11.6458 17.5729 11.7552 17.875 11.7969C18.1771 11.8281 18.4792 11.7552 18.7812 11.5781C18.8958 11.6823 19.0052 11.7135 19.1094 11.6719C19.2135 11.6198 19.3125 11.5625 19.4062 11.5C19.5104 11.4375 19.6146 11.4062 19.7188 11.4062C19.8229 11.3958 19.9271 11.4792 20.0312 11.6562C20.1771 11.5208 20.3281 11.4375 20.4844 11.4062C20.6406 11.3646 20.8021 11.3438 20.9688 11.3438C21.1354 11.3333 21.2969 11.3177 21.4531 11.2969C21.6198 11.276 21.7812 11.2083 21.9375 11.0938ZM15.9375 11.3594C15.9375 11.2031 15.9635 11.0365 16.0156 10.8594C16.0677 10.6823 16.1094 10.5104 16.1406 10.3438C16.1719 10.1667 16.1667 10 16.125 9.84375C16.0938 9.6875 15.9948 9.54688 15.8281 9.42188C15.7135 9.48438 15.6198 9.57292 15.5469 9.6875C15.474 9.79167 15.401 9.90104 15.3281 10.0156C15.2552 10.1198 15.1667 10.2083 15.0625 10.2812C14.9688 10.3542 14.8438 10.375 14.6875 10.3438C14.6354 10.4688 14.6354 10.5729 14.6875 10.6562C14.7396 10.7292 14.8021 10.8021 14.875 10.875C14.9479 10.9375 15.0156 11.0052 15.0781 11.0781C15.151 11.151 15.1771 11.2448 15.1562 11.3594C15.1979 11.3906 15.2552 11.4219 15.3281 11.4531C15.401 11.474 15.474 11.4896 15.5469 11.5C15.6302 11.5 15.7083 11.4896 15.7812 11.4688C15.8542 11.4479 15.9062 11.4115 15.9375 11.3594ZM15.8281 12.6094C15.6198 12.6094 15.4375 12.5625 15.2812 12.4688C15.1354 12.3646 14.9844 12.25 14.8281 12.125C14.6823 12 14.526 11.8854 14.3594 11.7812C14.2031 11.6667 14.0104 11.599 13.7812 11.5781C13.6875 11.7031 13.5781 11.8229 13.4531 11.9375C13.3281 12.0417 13.2188 12.1562 13.125 12.2812C13.0312 12.4062 12.9635 12.5417 12.9219 12.6875C12.8906 12.8333 12.9167 13 13 13.1875C12.7604 13.3021 12.599 13.4688 12.5156 13.6875C12.4323 13.8958 12.375 14.125 12.3438 14.375C12.3229 14.625 12.3021 14.875 12.2812 15.125C12.2604 15.375 12.1927 15.599 12.0781 15.7969L12.4219 15.5625C12.4635 15.5833 12.4948 15.6146 12.5156 15.6562C12.5469 15.6979 12.5521 15.7448 12.5312 15.7969C12.6146 15.7135 12.7083 15.651 12.8125 15.6094C12.9167 15.5573 13.0208 15.5208 13.125 15.5C13.2396 15.4688 13.349 15.4427 13.4531 15.4219C13.5677 15.401 13.6771 15.3698 13.7812 15.3281C14.0417 15.474 14.2292 15.5052 14.3438 15.4219C14.4583 15.3385 14.5521 15.2135 14.625 15.0469C14.6979 14.8802 14.776 14.7083 14.8594 14.5312C14.9427 14.3438 15.0781 14.2292 15.2656 14.1875L15.1562 14.0781C15.3333 13.8594 15.4896 13.6354 15.625 13.4062C15.7708 13.1667 15.8385 12.901 15.8281 12.6094ZM29.9375 14.1406C29.7188 14.6094 29.5104 14.9792 29.3125 15.25C29.1146 15.5208 28.8906 15.75 28.6406 15.9375C28.401 16.1146 28.1094 16.2812 27.7656 16.4375C27.4219 16.5938 26.9896 16.7917 26.4688 17.0312C26.2604 16.9792 26.0573 16.9635 25.8594 16.9844C25.6615 17.0156 25.4688 17.0365 25.2812 17.0469C25.1042 17.0573 24.9323 17.0365 24.7656 16.9844C24.599 16.9427 24.4479 16.8177 24.3125 16.6094H24.0781C24.0885 16.474 24.0729 16.3281 24.0312 16.1719C24 16.026 23.901 15.9427 23.7344 15.9219C23.8385 15.8073 23.9062 15.6823 23.9375 15.5469C23.9688 15.401 23.9896 15.2552 24 15.1094C24.0208 14.9635 24.0469 14.8229 24.0781 14.6875C24.1094 14.5521 24.1875 14.4375 24.3125 14.3438C24.1875 14.1771 24.1354 14.0104 24.1562 13.8438C24.1875 13.6667 24.2448 13.4948 24.3281 13.3281C24.4219 13.151 24.5156 12.9792 24.6094 12.8125C24.7135 12.6354 24.7656 12.4583 24.7656 12.2812C24.6719 12.2188 24.5833 12.1354 24.5 12.0312C24.4271 11.9167 24.3229 11.8854 24.1875 11.9375C23.9062 12.2083 23.625 12.4688 23.3438 12.7188C23.0625 12.9583 22.7865 13.2083 22.5156 13.4688C22.2552 13.7292 22.0052 14.0052 21.7656 14.2969C21.5365 14.5781 21.3229 14.8906 21.125 15.2344C20.9479 15.2656 20.8125 15.349 20.7188 15.4844C20.625 15.6198 20.5417 15.7656 20.4688 15.9219C20.3958 16.0677 20.3125 16.2083 20.2188 16.3438C20.1354 16.4792 20.0156 16.5677 19.8594 16.6094C19.8073 16.776 19.7552 16.9427 19.7031 17.1094C19.6406 17.2865 19.5833 17.4583 19.5312 17.625C19.4688 17.5938 19.3906 17.5677 19.2969 17.5469C19.1927 17.526 19.0938 17.5 19 17.4688C18.9062 17.4375 18.8229 17.3958 18.75 17.3438C18.6771 17.3021 18.6302 17.2448 18.6094 17.1719C18.599 17.151 18.599 17.1042 18.6094 17.0312C18.6094 16.9688 18.6094 16.9271 18.6094 16.9062C18.6302 16.6146 18.7083 16.3385 18.8438 16.0781C18.9688 15.8281 19.1042 15.5833 19.25 15.3438C19.3958 15.0938 19.5312 14.8438 19.6562 14.5938C19.7812 14.3438 19.849 14.0677 19.8594 13.7656C20.0156 13.7656 20.1146 13.7188 20.1562 13.625C20.2083 13.5312 20.2448 13.4323 20.2656 13.3281C20.2969 13.224 20.3333 13.1302 20.375 13.0469C20.4167 12.9635 20.5104 12.9323 20.6562 12.9531C20.5625 12.8281 20.5208 12.6927 20.5312 12.5469C20.5521 12.3906 20.5938 12.2396 20.6562 12.0938C20.7188 11.9375 20.7969 11.7917 20.8906 11.6562C20.9844 11.5104 21.0625 11.3802 21.125 11.2656C21.1146 11.1198 21.125 10.974 21.1562 10.8281C21.1979 10.6823 21.2656 10.5521 21.3594 10.4375C21.4531 10.3229 21.5365 10.2135 21.6094 10.1094C21.6823 10.0052 21.7552 9.89583 21.8281 9.78125C21.8698 9.72917 21.901 9.67188 21.9219 9.60938C21.9531 9.54688 21.9844 9.48958 22.0156 9.4375C22.1094 9.30208 22.1719 9.16146 22.2031 9.01562C22.2344 8.85938 22.2656 8.70833 22.2969 8.5625C22.3385 8.40625 22.3906 8.27083 22.4531 8.15625C22.526 8.03125 22.651 7.93229 22.8281 7.85938C22.8281 7.74479 22.8438 7.64062 22.875 7.54688C22.9167 7.44271 22.9583 7.33854 23 7.23438C23.0417 7.13021 23.0781 7.03125 23.1094 6.9375C23.151 6.83333 23.1719 6.72396 23.1719 6.60938C23.2031 6.55729 23.25 6.50521 23.3125 6.45312C23.375 6.40104 23.4323 6.34896 23.4844 6.29688C23.5365 6.24479 23.5781 6.19271 23.6094 6.14062C23.6406 6.07812 23.6458 6.00521 23.625 5.92188C23.6354 5.78646 23.6302 5.64583 23.6094 5.5C23.599 5.35417 23.6406 5.22917 23.7344 5.125C23.7135 4.98958 23.7292 4.88021 23.7812 4.79688C23.8438 4.71354 23.9167 4.64062 24 4.57812C24.0833 4.51562 24.1719 4.45833 24.2656 4.40625C24.3698 4.34375 24.4583 4.27604 24.5312 4.20312C24.4792 4.13021 24.4688 4.04688 24.5 3.95312C24.5312 3.85938 24.5729 3.77083 24.625 3.6875C24.6875 3.59375 24.7552 3.50521 24.8281 3.42188C24.901 3.33854 24.9531 3.26562 24.9844 3.20312C25.0469 3.07812 25.099 2.95312 25.1406 2.82812C25.1927 2.70312 25.25 2.58854 25.3125 2.48438C25.375 2.36979 25.4479 2.26562 25.5312 2.17188C25.625 2.07812 25.7448 2 25.8906 1.9375C25.849 1.72917 25.8594 1.56771 25.9219 1.45312C25.9948 1.33854 26.0885 1.23958 26.2031 1.15625C26.3281 1.07292 26.4583 0.994792 26.5938 0.921875C26.7292 0.838542 26.8385 0.723958 26.9219 0.578125C27.0365 0.546875 27.1615 0.515625 27.2969 0.484375C27.4323 0.442708 27.5677 0.416667 27.7031 0.40625C27.8385 0.385417 27.9688 0.385417 28.0938 0.40625C28.2188 0.427083 28.3333 0.484375 28.4375 0.578125C28.4792 0.619792 28.5052 0.645833 28.5156 0.65625C28.526 0.666667 28.5312 0.677083 28.5312 0.6875C28.5312 0.6875 28.5312 0.697917 28.5312 0.71875C28.5417 0.729167 28.5677 0.755208 28.6094 0.796875C28.651 0.838542 28.6927 0.880208 28.7344 0.921875C28.776 0.953125 28.8177 0.994792 28.8594 1.04688C28.8698 1.11979 28.8698 1.20312 28.8594 1.29688C28.849 1.38021 28.8438 1.46354 28.8438 1.54688C28.8438 1.63021 28.8542 1.70833 28.875 1.78125C28.9062 1.85417 28.974 1.90625 29.0781 1.9375C28.9948 2.23958 28.9583 2.5625 28.9688 2.90625C28.9792 3.25 28.9844 3.59896 28.9844 3.95312C28.9844 4.29688 28.9583 4.63021 28.9062 4.95312C28.8542 5.27604 28.7188 5.5625 28.5 5.8125L28.3906 6.60938C28.2552 6.61979 28.1615 6.66667 28.1094 6.75C28.0573 6.82292 28.0208 6.91146 28 7.01562C27.9792 7.11979 27.9583 7.22917 27.9375 7.34375C27.9271 7.45833 27.8906 7.55208 27.8281 7.625C27.7448 7.72917 27.6615 7.84896 27.5781 7.98438C27.4948 8.11979 27.4062 8.24479 27.3125 8.35938C27.2188 8.47396 27.1094 8.57292 26.9844 8.65625C26.8698 8.72917 26.7344 8.76562 26.5781 8.76562C26.5573 8.82812 26.5156 8.90104 26.4531 8.98438C26.3906 9.06771 26.3177 9.15104 26.2344 9.23438C26.1615 9.30729 26.0833 9.375 26 9.4375C25.9167 9.48958 25.8438 9.52604 25.7812 9.54688C25.6979 9.57812 25.6198 9.60417 25.5469 9.625C25.4844 9.63542 25.4115 9.66667 25.3281 9.71875C25.2344 9.77083 25.1406 9.83854 25.0469 9.92188C24.9531 10.0052 24.8542 10.0781 24.75 10.1406C24.6458 10.2031 24.5365 10.25 24.4219 10.2812C24.3073 10.3021 24.1927 10.2865 24.0781 10.2344C23.9427 10.401 23.7865 10.5052 23.6094 10.5469C23.4427 10.5781 23.276 10.6042 23.1094 10.625C22.9531 10.6354 22.8021 10.6719 22.6562 10.7344C22.5208 10.7865 22.4167 10.9115 22.3438 11.1094C22.3229 11.1302 22.3021 11.1771 22.2812 11.25C22.2708 11.3125 22.2656 11.3542 22.2656 11.375C22.2656 11.4896 22.2604 11.6302 22.25 11.7969C22.2396 11.9635 22.2812 12.0885 22.375 12.1719C22.75 11.9948 23.1042 11.7865 23.4375 11.5469C23.7812 11.2969 24.1458 11.0885 24.5312 10.9219L24.6406 11.0469C24.6719 10.8177 24.7708 10.7031 24.9375 10.7031C25.1042 10.6927 25.276 10.6927 25.4531 10.7031H25.5625C25.5833 10.7031 25.599 10.7031 25.6094 10.7031C25.6302 10.6927 25.651 10.6875 25.6719 10.6875C25.8698 10.6875 26 10.7656 26.0625 10.9219C26.125 11.0781 26.1823 11.2292 26.2344 11.375C26.1198 11.5 26.026 11.651 25.9531 11.8281C25.8906 11.9948 25.8281 12.1719 25.7656 12.3594C25.7135 12.5469 25.651 12.7344 25.5781 12.9219C25.5156 13.099 25.4271 13.2656 25.3125 13.4219C25.4062 13.474 25.4479 13.5312 25.4375 13.5938C25.4271 13.6562 25.4062 13.7188 25.375 13.7812C25.3542 13.8438 25.349 13.9062 25.3594 13.9688C25.3698 14.0208 25.4375 14.0625 25.5625 14.0938C25.4583 14.1667 25.3854 14.2552 25.3438 14.3594C25.3125 14.4531 25.2812 14.5573 25.25 14.6719C25.2292 14.776 25.2031 14.8802 25.1719 14.9844C25.1406 15.0781 25.0781 15.1615 24.9844 15.2344C25.026 15.3281 25.0573 15.4219 25.0781 15.5156C25.1094 15.599 25.1146 15.6979 25.0938 15.8125C25.2396 16 25.3854 16.1042 25.5312 16.125C25.6875 16.1458 25.8385 16.1354 25.9844 16.0938C26.1302 16.0521 26.2812 16.0104 26.4375 15.9688C26.5938 15.9271 26.7552 15.9375 26.9219 16C27.2135 15.8021 27.4167 15.6823 27.5312 15.6406C27.6458 15.599 27.7344 15.5677 27.7969 15.5469C27.8698 15.526 27.9531 15.4792 28.0469 15.4062C28.1406 15.3333 28.3177 15.1719 28.5781 14.9219C28.8385 14.849 29.0677 14.7292 29.2656 14.5625C29.474 14.3958 29.6979 14.2552 29.9375 14.1406ZM27.6094 1.375C27.6198 1.5 27.5885 1.59896 27.5156 1.67188C27.4531 1.73438 27.3802 1.79688 27.2969 1.85938C27.2135 1.91146 27.1302 1.96875 27.0469 2.03125C26.974 2.08333 26.9323 2.16667 26.9219 2.28125C26.7865 2.34375 26.6979 2.42708 26.6562 2.53125C26.6146 2.63542 26.5781 2.74479 26.5469 2.85938C26.526 2.96354 26.4896 3.06771 26.4375 3.17188C26.3854 3.27604 26.2812 3.35938 26.125 3.42188L26.2344 3.53125C25.8906 3.84375 25.6146 4.21354 25.4062 4.64062C25.2083 5.06771 25.0312 5.49479 24.875 5.92188C24.7292 6.07812 24.625 6.25521 24.5625 6.45312C24.5 6.64062 24.4375 6.83333 24.375 7.03125C24.3229 7.21875 24.25 7.40104 24.1562 7.57812C24.0729 7.74479 23.9323 7.875 23.7344 7.96875C23.8385 8.10417 23.875 8.22917 23.8438 8.34375C23.8229 8.45833 23.7708 8.56771 23.6875 8.67188C23.6042 8.77604 23.5156 8.88021 23.4219 8.98438C23.3385 9.08854 23.2917 9.20312 23.2812 9.32812C23.4792 9.36979 23.6719 9.36458 23.8594 9.3125C24.0573 9.26042 24.25 9.1875 24.4375 9.09375C24.625 8.98958 24.8021 8.875 24.9688 8.75C25.1354 8.625 25.2969 8.51562 25.4531 8.42188L25.5625 8.53125C26.0312 8.27083 26.4167 7.95833 26.7188 7.59375C27.0312 7.21875 27.3281 6.8125 27.6094 6.375C27.5156 6.30208 27.474 6.22396 27.4844 6.14062C27.5052 6.08854 27.5312 6.02604 27.5625 5.95312C27.5938 5.88021 27.6198 5.81771 27.6406 5.76562C27.7448 5.45312 27.8229 5.16146 27.875 4.89062C28.0104 4.32812 28.1042 3.76562 28.1562 3.20312C28.2188 2.63021 28.2604 2.05729 28.2812 1.48438L27.6094 1.375ZM37.7031 15.4375C37.7135 15.5625 37.6927 15.6562 37.6406 15.7188C37.5885 15.7812 37.5156 15.8281 37.4219 15.8594C37.3385 15.8906 37.2448 15.9167 37.1406 15.9375C37.0365 15.9479 36.9479 15.974 36.875 16.0156C36.5729 15.9844 36.2812 15.9427 36 15.8906C35.7188 15.8281 35.4583 15.7396 35.2188 15.625C34.9792 15.5 34.7604 15.3385 34.5625 15.1406C34.375 14.9427 34.2135 14.6927 34.0781 14.3906C34.2135 14.1719 34.2604 13.9323 34.2188 13.6719C34.1771 13.401 34.1354 13.1406 34.0938 12.8906C34.0625 12.6406 34.0677 12.4115 34.1094 12.2031C34.1615 11.9948 34.3438 11.8281 34.6562 11.7031C34.6354 11.5885 34.6354 11.4635 34.6562 11.3281C34.6875 11.1927 34.651 11.0781 34.5469 10.9844C34.1823 11.1094 33.8646 11.2865 33.5938 11.5156C33.3229 11.7448 33.0625 11.9948 32.8125 12.2656C32.5729 12.5365 32.3281 12.8125 32.0781 13.0938C31.8385 13.3646 31.5729 13.6042 31.2812 13.8125C31.1458 13.8229 31 13.8177 30.8438 13.7969C30.6979 13.7656 30.5729 13.8073 30.4688 13.9219C30.4792 13.9948 30.5052 14.0573 30.5469 14.1094C30.5885 14.1615 30.6198 14.2135 30.6406 14.2656C30.6719 14.3177 30.6875 14.375 30.6875 14.4375C30.6875 14.4896 30.651 14.5521 30.5781 14.625C30.474 14.7292 30.3594 14.8177 30.2344 14.8906C30.1198 14.9531 30.0052 15.026 29.8906 15.1094C29.7865 15.1823 29.6979 15.2708 29.625 15.375C29.5521 15.4792 29.5156 15.6198 29.5156 15.7969C29.4531 15.7656 29.3958 15.7604 29.3438 15.7812C29.2917 15.7917 29.2448 15.8177 29.2031 15.8594C29.151 15.901 29.1042 15.9479 29.0625 16C29.0208 16.0521 28.9792 16.0938 28.9375 16.125C28.9167 16.1771 28.9219 16.2188 28.9531 16.25C28.9844 16.2917 29.0208 16.3333 29.0625 16.375C29.0208 16.4896 28.9688 16.5573 28.9062 16.5781C28.8333 16.6094 28.7604 16.6146 28.6875 16.5938C28.6042 16.5729 28.526 16.5365 28.4531 16.4844C28.3698 16.4427 28.2969 16.4062 28.2344 16.375C28.2031 16.2396 28.1823 16.0833 28.1719 15.9062C28.1615 15.7292 28.1667 15.5573 28.1875 15.3906C28.2083 15.2135 28.25 15.0469 28.3125 14.8906C28.375 14.7344 28.4688 14.6042 28.5938 14.5C28.6354 14.4688 28.6615 14.4531 28.6719 14.4531C28.6823 14.4427 28.6875 14.4375 28.6875 14.4375C28.6875 14.4375 28.6927 14.4375 28.7031 14.4375C28.7135 14.4271 28.7344 14.4062 28.7656 14.375C28.849 14.2812 28.9062 14.1823 28.9375 14.0781C28.9688 13.9635 28.9948 13.849 29.0156 13.7344C29.0365 13.6198 29.0677 13.5104 29.1094 13.4062C29.1406 13.2917 29.2031 13.1927 29.2969 13.1094C29.2552 12.9427 29.2552 12.7969 29.2969 12.6719C29.349 12.5365 29.4115 12.4115 29.4844 12.2969C29.5677 12.1719 29.6458 12.0521 29.7188 11.9375C29.8021 11.8125 29.8542 11.6771 29.875 11.5312C29.8854 11.4792 29.8854 11.4323 29.875 11.3906C29.875 11.3385 29.875 11.2865 29.875 11.2344C29.8542 11.0677 29.8698 10.9427 29.9219 10.8594C29.9844 10.7656 30.0573 10.6927 30.1406 10.6406C30.2344 10.5781 30.3281 10.5156 30.4219 10.4531C30.526 10.3906 30.6146 10.2969 30.6875 10.1719C30.9896 10.3177 31.1667 10.5156 31.2188 10.7656C31.2812 11.0052 31.3021 11.276 31.2812 11.5781C31.1042 11.6927 30.9688 11.8542 30.875 12.0625C30.7812 12.2604 30.7188 12.4531 30.6875 12.6406C30.7083 12.7031 30.7344 12.7396 30.7656 12.75C30.8073 12.75 30.849 12.7448 30.8906 12.7344C30.9427 12.7135 30.9896 12.6927 31.0312 12.6719C31.0729 12.651 31.1146 12.6406 31.1562 12.6406C31.5312 12.3802 31.901 12.0885 32.2656 11.7656C32.6406 11.4427 32.9323 11.0729 33.1406 10.6562C33.4427 10.5104 33.7292 10.3438 34 10.1562C34.2708 9.95833 34.5677 9.8125 34.8906 9.71875L35.25 9.35938C35.3021 9.44271 35.3646 9.46354 35.4375 9.42188C35.5104 9.36979 35.5833 9.3125 35.6562 9.25C35.7292 9.1875 35.7969 9.15104 35.8594 9.14062C35.9323 9.13021 36 9.20312 36.0625 9.35938C36.1667 9.63021 36.1927 9.89583 36.1406 10.1562C36.0885 10.4062 36.0052 10.6562 35.8906 10.9062C35.7865 11.1458 35.6771 11.3906 35.5625 11.6406C35.4479 11.8906 35.3802 12.1458 35.3594 12.4062C35.3594 12.4688 35.3594 12.5365 35.3594 12.6094C35.3594 12.6719 35.3542 12.7396 35.3438 12.8125C35.3229 13.0312 35.2917 13.2708 35.25 13.5312C35.2188 13.7812 35.2344 14.0104 35.2969 14.2188C35.349 14.4062 35.4583 14.5729 35.625 14.7188C35.7917 14.8646 35.9375 15.0104 36.0625 15.1562C36.1354 15.1458 36.2083 15.151 36.2812 15.1719C36.3542 15.1927 36.4219 15.2135 36.4844 15.2344C36.5573 15.2552 36.625 15.2656 36.6875 15.2656C36.75 15.2552 36.8125 15.2188 36.875 15.1562C36.9479 15.125 37.0156 15.1302 37.0781 15.1719C37.151 15.2031 37.2188 15.2448 37.2812 15.2969C37.3438 15.349 37.4062 15.3958 37.4688 15.4375C37.5417 15.4688 37.6198 15.4688 37.7031 15.4375ZM58.9844 10.3906C58.9844 10.599 58.8698 10.8385 58.6406 11.1094C58.4219 11.3698 58.1406 11.6458 57.7969 11.9375C57.4531 12.2188 57.0677 12.5052 56.6406 12.7969C56.224 13.0781 55.8073 13.3438 55.3906 13.5938C54.9844 13.8438 54.6042 14.0677 54.25 14.2656C53.9062 14.4531 53.6354 14.599 53.4375 14.7031C53.2188 14.8177 52.9948 14.9219 52.7656 15.0156C52.5365 15.1094 52.3177 15.2188 52.1094 15.3438C52.0052 15.3958 51.9115 15.4583 51.8281 15.5312C51.7448 15.5938 51.6615 15.6562 51.5781 15.7188C51.401 15.8438 51.2344 15.9219 51.0781 15.9531C50.9219 15.9844 50.7812 16.0208 50.6562 16.0625C50.5417 16.1042 50.4531 16.1771 50.3906 16.2812C50.3281 16.3958 50.2969 16.5833 50.2969 16.8438C50.026 16.8438 49.7604 16.8177 49.5 16.7656C49.2396 16.724 48.9792 16.7031 48.7188 16.7031C48.5521 16.7031 48.3906 16.724 48.2344 16.7656C48.0885 16.8177 47.9375 16.8698 47.7812 16.9219C47.6354 16.974 47.4844 17.0208 47.3281 17.0625C47.1823 17.1146 47.026 17.1406 46.8594 17.1406H46.1562C46.0833 17.0365 46.0052 16.9531 45.9219 16.8906C45.8385 16.8281 45.75 16.7708 45.6562 16.7188C45.5729 16.6771 45.4844 16.6354 45.3906 16.5938C45.3073 16.5521 45.224 16.4948 45.1406 16.4219C45.026 16.3073 44.9062 16.1719 44.7812 16.0156C44.6562 15.8594 44.5365 15.7083 44.4219 15.5625C44.2135 15.3125 44.0417 15.0312 43.9062 14.7188C43.7604 14.4062 43.6458 14.0833 43.5625 13.75C43.4688 13.4062 43.401 13.0625 43.3594 12.7188C43.3177 12.3646 43.2969 12.0312 43.2969 11.7188C43.2969 11.6458 43.3281 11.5104 43.3906 11.3125C43.4427 11.1042 43.5104 10.8854 43.5938 10.6562C43.6667 10.4271 43.7448 10.2083 43.8281 10C43.9115 9.79167 43.974 9.64583 44.0156 9.5625C44.0156 9.53125 44.0573 9.45312 44.1406 9.32812C44.2135 9.19271 44.3073 9.03646 44.4219 8.85938C44.5365 8.68229 44.6615 8.48958 44.7969 8.28125C44.9323 8.0625 45.0625 7.85938 45.1875 7.67188C45.3125 7.48438 45.4219 7.31771 45.5156 7.17188C45.6094 7.01562 45.6771 6.90625 45.7188 6.84375C45.7812 6.75 45.8906 6.59375 46.0469 6.375C46.2135 6.15625 46.4062 5.91146 46.625 5.64062C46.8438 5.36979 47.0781 5.09375 47.3281 4.8125C47.5781 4.53125 47.8177 4.28125 48.0469 4.0625C48.2865 3.83333 48.5 3.66146 48.6875 3.54688C48.8854 3.42188 49.0365 3.38021 49.1406 3.42188C49.5781 2.83854 50.1302 2.41146 50.7969 2.14062C51.4635 1.85938 52.151 1.71875 52.8594 1.71875C53.099 1.71875 53.3385 1.70833 53.5781 1.6875C53.8281 1.65625 54.0677 1.71354 54.2969 1.85938C54.401 2.04688 54.5104 2.29688 54.625 2.60938C54.75 2.92188 54.8594 3.25521 54.9531 3.60938C55.0573 3.95312 55.1406 4.29167 55.2031 4.625C55.2656 4.94792 55.2969 5.21354 55.2969 5.42188C55.2969 5.67188 55.2396 5.90625 55.125 6.125C55.0208 6.34375 54.8906 6.55729 54.7344 6.76562C54.5781 6.97396 54.4167 7.18229 54.25 7.39062C54.0938 7.58854 53.9635 7.79167 53.8594 8C53.776 8.16667 53.6719 8.40104 53.5469 8.70312C53.4323 9.00521 53.2969 9.30729 53.1406 9.60938C52.9844 9.90104 52.8125 10.1562 52.625 10.375C52.4375 10.5938 52.2344 10.7031 52.0156 10.7031C51.901 10.7031 51.776 10.6354 51.6406 10.5C51.5052 10.3646 51.4375 10.2396 51.4375 10.125C51.4375 9.69792 51.5052 9.29167 51.6406 8.90625C51.776 8.52083 51.9427 8.15104 52.1406 7.79688C52.3385 7.43229 52.5573 7.07812 52.7969 6.73438C53.0365 6.38021 53.2552 6.02604 53.4531 5.67188C53.651 5.31771 53.8177 4.95833 53.9531 4.59375C54.0885 4.21875 54.1562 3.82812 54.1562 3.42188C54.1562 3.27604 54.1406 3.11979 54.1094 2.95312C54.0885 2.77604 54.0052 2.64583 53.8594 2.5625H53.1406C52.8698 2.5625 52.5833 2.58333 52.2812 2.625C51.9792 2.65625 51.724 2.77604 51.5156 2.98438C51.4323 3.06771 51.349 3.16146 51.2656 3.26562C51.1927 3.35938 51.1146 3.44792 51.0312 3.53125C51.0104 3.55208 50.9792 3.58854 50.9375 3.64062C50.8958 3.68229 50.849 3.72917 50.7969 3.78125C50.7552 3.83333 50.7083 3.88021 50.6562 3.92188C50.6146 3.96354 50.5833 3.98958 50.5625 4C50.5208 4.02083 50.474 4.04167 50.4219 4.0625C50.3802 4.08333 50.3385 4.10417 50.2969 4.125C50.2135 4.16667 50.1302 4.20833 50.0469 4.25C49.9635 4.28125 49.8802 4.32292 49.7969 4.375C49.5781 4.52083 49.3802 4.69271 49.2031 4.89062C49.0365 5.08854 48.8698 5.29167 48.7031 5.5C48.5469 5.70833 48.3802 5.90625 48.2031 6.09375C48.026 6.28125 47.8177 6.4375 47.5781 6.5625C47.3073 7.01042 47.0052 7.48438 46.6719 7.98438C46.349 8.47396 46.0417 8.97917 45.75 9.5C45.4583 10.0208 45.2135 10.5521 45.0156 11.0938C44.8177 11.6354 44.7188 12.1719 44.7188 12.7031C44.7188 12.9219 44.7396 13.1771 44.7812 13.4688C44.8229 13.75 44.8958 14.026 45 14.2969C45.1042 14.5677 45.2344 14.8073 45.3906 15.0156C45.5573 15.224 45.7656 15.3594 46.0156 15.4219C46.0885 15.4427 46.1615 15.4531 46.2344 15.4531C46.3177 15.4427 46.3958 15.4375 46.4688 15.4375C46.5417 15.4375 46.6094 15.4427 46.6719 15.4531C46.7448 15.4635 46.8073 15.5 46.8594 15.5625H47.7188C47.9167 15.5625 48.099 15.5469 48.2656 15.5156C48.4323 15.4844 48.5938 15.4427 48.75 15.3906C48.9062 15.3281 49.0625 15.2656 49.2188 15.2031C49.375 15.1302 49.5417 15.0573 49.7188 14.9844C49.8229 14.9531 49.9167 14.9219 50 14.8906C50.0833 14.8594 50.1719 14.8281 50.2656 14.7969C50.4948 14.7344 50.7188 14.6823 50.9375 14.6406C51.1562 14.599 51.3698 14.526 51.5781 14.4219C51.8281 14.2969 52.0625 14.1562 52.2812 14C52.5104 13.8438 52.75 13.6979 53 13.5625C53.0729 13.5312 53.1615 13.5104 53.2656 13.5C53.3802 13.4896 53.4948 13.4844 53.6094 13.4844C53.724 13.474 53.8281 13.4635 53.9219 13.4531C54.026 13.4427 54.099 13.4167 54.1406 13.375C54.2344 13.2812 54.3229 13.1875 54.4062 13.0938C54.5 12.9896 54.599 12.8906 54.7031 12.7969C54.8802 12.7656 55.0469 12.6979 55.2031 12.5938C55.3594 12.4896 55.526 12.4219 55.7031 12.3906C55.7552 12.3698 55.8021 12.349 55.8438 12.3281C55.8958 12.2969 55.9479 12.2656 56 12.2344C56.1458 12.151 56.2865 12.0625 56.4219 11.9688C56.5573 11.875 56.6927 11.7865 56.8281 11.7031C57.4948 11.2552 58.1667 10.8177 58.8438 10.3906H58.9844ZM68.4844 11.2188C68.3906 11.3125 68.3177 11.3854 68.2656 11.4375C68.224 11.4896 68.1823 11.5417 68.1406 11.5938C68.1094 11.6354 68.0677 11.6823 68.0156 11.7344C67.974 11.7865 67.9062 11.8646 67.8125 11.9688C67.7292 12.0521 67.651 12.1406 67.5781 12.2344C67.5052 12.3281 67.4219 12.4115 67.3281 12.4844C67.2031 12.4531 67.1042 12.4688 67.0312 12.5312C66.9688 12.5938 66.9062 12.6667 66.8438 12.75C66.7917 12.8229 66.7396 12.8958 66.6875 12.9688C66.6458 13.0312 66.5885 13.0573 66.5156 13.0469C66.2656 13.1823 66.0156 13.3021 65.7656 13.4062C65.5156 13.5 65.276 13.6406 65.0469 13.8281L64.9219 13.7031L63.2969 14.4844C63.2448 14.5052 63.1927 14.5365 63.1406 14.5781C63.0885 14.6198 63.0365 14.6562 62.9844 14.6875C62.7552 14.8125 62.5156 14.9271 62.2656 15.0312C62.026 15.125 61.7865 15.2135 61.5469 15.2969L61.3438 15.3594C61.4271 15.5677 61.4271 15.7135 61.3438 15.7969C61.2604 15.8802 61.1406 15.9427 60.9844 15.9844C60.8281 16.0156 60.6562 16.0365 60.4688 16.0469C60.2812 16.0573 60.1354 16.0938 60.0312 16.1562C59.9062 16.1354 59.776 16.125 59.6406 16.125C59.5156 16.1354 59.3854 16.151 59.25 16.1719C59.1042 16.1927 58.9688 16.2031 58.8438 16.2031C58.7188 16.2031 58.5833 16.1875 58.4375 16.1562H58.4062C58.2292 16.2396 58.0729 16.2552 57.9375 16.2031C57.8125 16.1615 57.6979 16.0885 57.5938 15.9844C57.4896 15.8698 57.3906 15.7396 57.2969 15.5938C57.2135 15.4375 57.125 15.2969 57.0312 15.1719C56.9688 15.0885 56.8906 14.9688 56.7969 14.8125C56.7031 14.6562 56.625 14.4896 56.5625 14.3125C56.4896 14.1354 56.4479 13.9583 56.4375 13.7812C56.4167 13.5938 56.4531 13.4323 56.5469 13.2969C56.6406 13.1615 56.7188 13.0156 56.7812 12.8594C56.8333 12.7031 56.8594 12.5208 56.8594 12.3125C56.8594 12.2396 56.8594 12.1719 56.8594 12.1094C56.849 12.0469 56.8438 11.9792 56.8438 11.9062C56.8958 11.9062 56.9531 11.9115 57.0156 11.9219C57.0781 11.9219 57.1354 11.9219 57.1875 11.9219C57.25 11.9115 57.2969 11.8906 57.3281 11.8594C57.3698 11.8177 57.3906 11.75 57.3906 11.6562C57.3906 11.6042 57.3698 11.5625 57.3281 11.5312C57.2969 11.5 57.276 11.4688 57.2656 11.4375C57.3281 11.3438 57.3854 11.2708 57.4375 11.2188C57.5 11.1562 57.5521 11.099 57.5938 11.0469C57.6354 10.9844 57.6667 10.9167 57.6875 10.8438C57.7083 10.7604 57.7031 10.651 57.6719 10.5156C57.7969 10.2969 57.9427 10.1042 58.1094 9.9375C58.2865 9.76042 58.4688 9.59896 58.6562 9.45312C58.8438 9.29688 59.0365 9.14583 59.2344 9C59.4323 8.85417 59.6198 8.69792 59.7969 8.53125C59.9948 8.61458 60.151 8.61458 60.2656 8.53125C60.3906 8.44792 60.5 8.35938 60.5938 8.26562C60.6875 8.16146 60.7812 8.07812 60.875 8.01562C60.9688 7.95312 61.0938 7.97917 61.25 8.09375L61.2812 8.125C61.5625 7.84375 61.8438 7.71875 62.125 7.75C62.4167 7.78125 62.6615 7.875 62.8594 8.03125C63.0677 8.1875 63.2031 8.36979 63.2656 8.57812C63.3281 8.77604 63.2708 8.91146 63.0938 8.98438C63.2083 9.09896 63.2656 9.23438 63.2656 9.39062C63.2656 9.54688 63.224 9.68229 63.1406 9.79688C63.0469 9.92188 62.9635 10.0521 62.8906 10.1875C62.8281 10.3125 62.7604 10.4479 62.6875 10.5938C62.5833 10.8333 62.4688 11.0625 62.3438 11.2812C62.2188 11.4896 62.0417 11.6667 61.8125 11.8125C61.625 11.7604 61.4948 11.7812 61.4219 11.875C61.3594 11.9688 61.3125 12.0729 61.2812 12.1875C61.25 12.2917 61.2135 12.375 61.1719 12.4375C61.1302 12.5 61.0417 12.4792 60.9062 12.375L60.875 12.3438L60.8438 12.375C60.7604 12.4583 60.6927 12.5521 60.6406 12.6562C60.599 12.7604 60.5365 12.8385 60.4531 12.8906C60.3594 12.8594 60.2604 12.8333 60.1562 12.8125C60.0521 12.7917 59.9531 12.7708 59.8594 12.75C59.8594 12.9688 59.8177 13.1406 59.7344 13.2656C59.651 13.3906 59.5417 13.4948 59.4062 13.5781C59.2812 13.651 59.1354 13.7135 58.9688 13.7656C58.8021 13.8073 58.6354 13.8646 58.4688 13.9375C58.3125 14 58.1615 14.0833 58.0156 14.1875C57.8802 14.2812 57.7708 14.4167 57.6875 14.5938C57.7917 14.7083 57.9219 14.776 58.0781 14.7969C58.2344 14.8073 58.3958 14.8073 58.5625 14.7969C58.7292 14.776 58.8906 14.7656 59.0469 14.7656C59.2135 14.7656 59.3594 14.8073 59.4844 14.8906L59.5 14.9062L59.5156 14.8906C59.7656 14.8594 60.0052 14.8021 60.2344 14.7188C60.474 14.625 60.7031 14.5312 60.9219 14.4375C61.151 14.3333 61.3802 14.2396 61.6094 14.1562C61.849 14.0625 62.0938 13.9948 62.3438 13.9531C62.3958 14.0365 62.4635 14.0833 62.5469 14.0938C62.6406 14.1042 62.7292 14.099 62.8125 14.0781L62.8281 14.0469C62.849 13.974 62.8698 13.9115 62.8906 13.8594C62.9115 13.7969 62.9427 13.7292 62.9844 13.6562C63.0573 13.5417 63.1458 13.4531 63.25 13.3906C63.3542 13.3281 63.4635 13.2812 63.5781 13.25C63.7031 13.2188 63.8333 13.1979 63.9688 13.1875C64.1042 13.1771 64.2396 13.1615 64.375 13.1406H64.4062L64.4219 13.0938C64.4635 12.9688 64.5156 12.8854 64.5781 12.8438C64.651 12.7917 64.724 12.7552 64.7969 12.7344C64.8802 12.7135 64.9635 12.6979 65.0469 12.6875C65.1406 12.6771 65.2292 12.6458 65.3125 12.5938C65.5 12.6562 65.6562 12.6354 65.7812 12.5312C65.9062 12.4271 66.026 12.3177 66.1406 12.2031L66.2656 12.3594L66.3125 12.2969C66.4688 12.151 66.5833 12.0417 66.6562 11.9688C66.7396 11.8958 66.8177 11.8333 66.8906 11.7812C66.9635 11.7188 67.0469 11.6615 67.1406 11.6094C67.2448 11.5469 67.3854 11.4583 67.5625 11.3438C67.7083 11.25 67.849 11.1562 67.9844 11.0625C68.1302 10.9688 68.2708 10.8646 68.4062 10.75C68.4583 10.7708 68.4844 10.8125 68.4844 10.875C68.4844 10.9271 68.4844 10.9792 68.4844 11.0312C68.474 11.0521 68.4635 11.0833 68.4531 11.125C68.4531 11.1667 68.4635 11.1979 68.4844 11.2188ZM62.0156 9.26562C62.0052 9.25521 61.9948 9.25 61.9844 9.25C61.9844 9.25 61.9792 9.24479 61.9688 9.23438C61.75 9.11979 61.5677 9.06771 61.4219 9.07812C61.276 9.07812 61.1406 9.11979 61.0156 9.20312C60.901 9.27604 60.7917 9.375 60.6875 9.5C60.5938 9.61458 60.4896 9.72396 60.375 9.82812C60.2708 9.92188 60.1458 9.99479 60 10.0469C59.8542 10.099 59.6771 10.0938 59.4688 10.0312C59.4375 10.1979 59.4062 10.3646 59.375 10.5312C59.3542 10.6875 59.3385 10.849 59.3281 11.0156C59.151 11.0781 59.0104 11.1667 58.9062 11.2812C58.8125 11.3958 58.7292 11.5208 58.6562 11.6562C58.5938 11.7917 58.5312 11.9375 58.4688 12.0938C58.4167 12.2396 58.3438 12.3802 58.25 12.5156L58.3125 12.5938C58.3542 12.5729 58.401 12.5885 58.4531 12.6406C58.5052 12.6927 58.5417 12.7292 58.5625 12.75C58.6771 12.5833 58.8281 12.4427 59.0156 12.3281C59.2135 12.2135 59.4115 12.1094 59.6094 12.0156C59.8177 11.9115 60.0156 11.8021 60.2031 11.6875C60.3906 11.5729 60.5312 11.4219 60.625 11.2344C60.9583 11.1406 61.2083 10.9531 61.375 10.6719C61.5417 10.3906 61.6823 10.099 61.7969 9.79688C61.8177 9.73438 61.8542 9.64583 61.9062 9.53125C61.9688 9.40625 62.0052 9.31771 62.0156 9.26562ZM74.8125 15.4375C74.8229 15.5625 74.8021 15.6562 74.75 15.7188C74.6979 15.7812 74.625 15.8281 74.5312 15.8594C74.4479 15.8906 74.3542 15.9167 74.25 15.9375C74.1458 15.9479 74.0573 15.974 73.9844 16.0156C73.6823 15.9844 73.3906 15.9427 73.1094 15.8906C72.8281 15.8281 72.5677 15.7396 72.3281 15.625C72.0885 15.5 71.8698 15.3385 71.6719 15.1406C71.4844 14.9427 71.3229 14.6927 71.1875 14.3906C71.3229 14.1719 71.3698 13.9323 71.3281 13.6719C71.2865 13.401 71.2448 13.1406 71.2031 12.8906C71.1719 12.6406 71.1771 12.4115 71.2188 12.2031C71.2708 11.9948 71.4531 11.8281 71.7656 11.7031C71.7448 11.5885 71.7448 11.4635 71.7656 11.3281C71.7969 11.1927 71.7604 11.0781 71.6562 10.9844C71.2917 11.1094 70.974 11.2865 70.7031 11.5156C70.4323 11.7448 70.1719 11.9948 69.9219 12.2656C69.6823 12.5365 69.4375 12.8125 69.1875 13.0938C68.9479 13.3646 68.6823 13.6042 68.3906 13.8125C68.2552 13.8229 68.1094 13.8177 67.9531 13.7969C67.8073 13.7656 67.6823 13.8073 67.5781 13.9219C67.5885 13.9948 67.6146 14.0573 67.6562 14.1094C67.6979 14.1615 67.7292 14.2135 67.75 14.2656C67.7812 14.3177 67.7969 14.375 67.7969 14.4375C67.7969 14.4896 67.7604 14.5521 67.6875 14.625C67.5833 14.7292 67.4688 14.8177 67.3438 14.8906C67.2292 14.9531 67.1146 15.026 67 15.1094C66.8958 15.1823 66.8073 15.2708 66.7344 15.375C66.6615 15.4792 66.625 15.6198 66.625 15.7969C66.5625 15.7656 66.5052 15.7604 66.4531 15.7812C66.401 15.7917 66.3542 15.8177 66.3125 15.8594C66.2604 15.901 66.2135 15.9479 66.1719 16C66.1302 16.0521 66.0885 16.0938 66.0469 16.125C66.026 16.1771 66.0312 16.2188 66.0625 16.25C66.0938 16.2917 66.1302 16.3333 66.1719 16.375C66.1302 16.4896 66.0781 16.5573 66.0156 16.5781C65.9427 16.6094 65.8698 16.6146 65.7969 16.5938C65.7135 16.5729 65.6354 16.5365 65.5625 16.4844C65.4792 16.4427 65.4062 16.4062 65.3438 16.375C65.3125 16.2396 65.2917 16.0833 65.2812 15.9062C65.2708 15.7292 65.276 15.5573 65.2969 15.3906C65.3177 15.2135 65.3594 15.0469 65.4219 14.8906C65.4844 14.7344 65.5781 14.6042 65.7031 14.5C65.7448 14.4688 65.7708 14.4531 65.7812 14.4531C65.7917 14.4427 65.7969 14.4375 65.7969 14.4375C65.7969 14.4375 65.8021 14.4375 65.8125 14.4375C65.8229 14.4271 65.8438 14.4062 65.875 14.375C65.9583 14.2812 66.0156 14.1823 66.0469 14.0781C66.0781 13.9635 66.1042 13.849 66.125 13.7344C66.1458 13.6198 66.1771 13.5104 66.2188 13.4062C66.25 13.2917 66.3125 13.1927 66.4062 13.1094C66.3646 12.9427 66.3646 12.7969 66.4062 12.6719C66.4583 12.5365 66.5208 12.4115 66.5938 12.2969C66.6771 12.1719 66.7552 12.0521 66.8281 11.9375C66.9115 11.8125 66.9635 11.6771 66.9844 11.5312C66.9948 11.4792 66.9948 11.4323 66.9844 11.3906C66.9844 11.3385 66.9844 11.2865 66.9844 11.2344C66.9635 11.0677 66.9792 10.9427 67.0312 10.8594C67.0938 10.7656 67.1667 10.6927 67.25 10.6406C67.3438 10.5781 67.4375 10.5156 67.5312 10.4531C67.6354 10.3906 67.724 10.2969 67.7969 10.1719C68.099 10.3177 68.276 10.5156 68.3281 10.7656C68.3906 11.0052 68.4115 11.276 68.3906 11.5781C68.2135 11.6927 68.0781 11.8542 67.9844 12.0625C67.8906 12.2604 67.8281 12.4531 67.7969 12.6406C67.8177 12.7031 67.8438 12.7396 67.875 12.75C67.9167 12.75 67.9583 12.7448 68 12.7344C68.0521 12.7135 68.099 12.6927 68.1406 12.6719C68.1823 12.651 68.224 12.6406 68.2656 12.6406C68.6406 12.3802 69.0104 12.0885 69.375 11.7656C69.75 11.4427 70.0417 11.0729 70.25 10.6562C70.5521 10.5104 70.8385 10.3438 71.1094 10.1562C71.3802 9.95833 71.6771 9.8125 72 9.71875L72.3594 9.35938C72.4115 9.44271 72.474 9.46354 72.5469 9.42188C72.6198 9.36979 72.6927 9.3125 72.7656 9.25C72.8385 9.1875 72.9062 9.15104 72.9688 9.14062C73.0417 9.13021 73.1094 9.20312 73.1719 9.35938C73.276 9.63021 73.3021 9.89583 73.25 10.1562C73.1979 10.4062 73.1146 10.6562 73 10.9062C72.8958 11.1458 72.7865 11.3906 72.6719 11.6406C72.5573 11.8906 72.4896 12.1458 72.4688 12.4062C72.4688 12.4688 72.4688 12.5365 72.4688 12.6094C72.4688 12.6719 72.4635 12.7396 72.4531 12.8125C72.4323 13.0312 72.401 13.2708 72.3594 13.5312C72.3281 13.7812 72.3438 14.0104 72.4062 14.2188C72.4583 14.4062 72.5677 14.5729 72.7344 14.7188C72.901 14.8646 73.0469 15.0104 73.1719 15.1562C73.2448 15.1458 73.3177 15.151 73.3906 15.1719C73.4635 15.1927 73.5312 15.2135 73.5938 15.2344C73.6667 15.2552 73.7344 15.2656 73.7969 15.2656C73.8594 15.2552 73.9219 15.2188 73.9844 15.1562C74.0573 15.125 74.125 15.1302 74.1875 15.1719C74.2604 15.2031 74.3281 15.2448 74.3906 15.2969C74.4531 15.349 74.5156 15.3958 74.5781 15.4375C74.651 15.4688 74.7292 15.4688 74.8125 15.4375ZM86.6094 14.3594C86.4635 14.6094 86.349 14.8125 86.2656 14.9688C86.1927 15.1146 86.1146 15.2396 86.0312 15.3438C85.9583 15.4375 85.8698 15.526 85.7656 15.6094C85.6719 15.6823 85.5365 15.776 85.3594 15.8906C85.2448 15.9948 85.1302 16.0833 85.0156 16.1562C84.9219 16.2292 84.8281 16.2917 84.7344 16.3438C84.651 16.3958 84.5833 16.4219 84.5312 16.4219C84.5104 16.4219 84.4896 16.4167 84.4688 16.4062C84.4479 16.4062 84.4271 16.4062 84.4062 16.4062C84.3438 16.4062 84.2812 16.4062 84.2188 16.4062C84.1667 16.4167 84.1198 16.3802 84.0781 16.2969C84.0469 16.3281 84.0208 16.3646 84 16.4062C83.9792 16.4479 83.9583 16.4844 83.9375 16.5156C83.9167 16.5573 83.8854 16.5885 83.8438 16.6094C83.8125 16.6302 83.7656 16.6302 83.7031 16.6094L83.625 16.5156L83.3906 16.7188C83.099 16.5729 82.8177 16.4479 82.5469 16.3438C82.2865 16.25 82.0521 16.1354 81.8438 16C81.6354 15.8646 81.4583 15.6927 81.3125 15.4844C81.1667 15.2656 81.0625 14.9688 81 14.5938C80.9479 14.5312 80.8906 14.4792 80.8281 14.4375C80.7656 14.3854 80.6927 14.3698 80.6094 14.3906C80.5052 14.5677 80.3802 14.7188 80.2344 14.8438C80.0885 14.9688 79.9427 15.1042 79.7969 15.25C79.7448 15.3021 79.7031 15.3594 79.6719 15.4219C79.6406 15.4844 79.599 15.5417 79.5469 15.5938C79.4635 15.6875 79.3646 15.7552 79.25 15.7969C79.1354 15.8281 79.0208 15.8594 78.9062 15.8906C78.7917 15.9219 78.6823 15.974 78.5781 16.0469C78.4844 16.1198 78.4167 16.2448 78.375 16.4219C78.25 16.349 78.125 16.3281 78 16.3594C77.9062 16.3802 77.8073 16.401 77.7031 16.4219C77.599 16.4531 77.4948 16.4688 77.3906 16.4688C77.2969 16.4792 77.2031 16.4688 77.1094 16.4375C77.0156 16.4062 76.9323 16.3385 76.8594 16.2344C76.7135 16.2969 76.5781 16.2917 76.4531 16.2188C76.3281 16.1562 76.2083 16.0677 76.0938 15.9531C75.9896 15.8281 75.8854 15.6979 75.7812 15.5625C75.6771 15.4271 75.5781 15.3281 75.4844 15.2656C75.4219 15.099 75.4271 14.9583 75.5 14.8438C75.5625 14.7188 75.6354 14.6042 75.7188 14.5C75.7917 14.3854 75.8438 14.276 75.875 14.1719C75.9062 14.0573 75.8594 13.9219 75.7344 13.7656C75.8385 13.6094 75.9323 13.4479 76.0156 13.2812C76.099 13.1042 76.1823 12.9323 76.2656 12.7656C76.3594 12.5885 76.4531 12.4219 76.5469 12.2656C76.651 12.099 76.776 11.9583 76.9219 11.8438C76.8594 11.7708 76.8281 11.7031 76.8281 11.6406C76.8281 11.5677 76.8438 11.5 76.875 11.4375C76.9062 11.3646 76.9427 11.2969 76.9844 11.2344C77.026 11.1615 77.0573 11.0938 77.0781 11.0312L77.5312 10.8125L77.4219 10.4375C77.5365 10.4583 77.6198 10.4531 77.6719 10.4219C77.7344 10.3906 77.776 10.3438 77.7969 10.2812C77.8281 10.2188 77.849 10.151 77.8594 10.0781C77.8802 9.99479 77.9062 9.92188 77.9375 9.85938C77.9896 9.76562 78.0677 9.69792 78.1719 9.65625C78.3906 9.48958 78.6042 9.3125 78.8125 9.125C79.0312 8.9375 79.2448 8.75521 79.4531 8.57812C79.6719 8.40104 79.8958 8.23438 80.125 8.07812C80.3542 7.91146 80.6042 7.77083 80.875 7.65625C81.0625 7.6875 81.2083 7.74479 81.3125 7.82812C81.4271 7.91146 81.5104 8.01042 81.5625 8.125C81.625 8.23958 81.6719 8.36979 81.7031 8.51562C81.7344 8.65104 81.7656 8.78646 81.7969 8.92188C81.849 9.09896 81.9115 9.25 81.9844 9.375C82.0573 9.5 82.1823 9.60417 82.3594 9.6875C82.2135 9.9375 82.1562 10.1875 82.1875 10.4375C82.2188 10.6771 82.25 10.9323 82.2812 11.2031C82.3125 11.4531 82.3073 11.6979 82.2656 11.9375C82.2344 12.1771 82.0833 12.3906 81.8125 12.5781C81.7917 12.651 81.7865 12.7292 81.7969 12.8125C81.8073 12.8958 81.8125 12.9792 81.8125 13.0625C81.8125 13.1458 81.7969 13.224 81.7656 13.2969C81.7344 13.3698 81.6771 13.4271 81.5938 13.4688C81.6875 13.5833 81.7344 13.6979 81.7344 13.8125C81.7448 13.9271 81.75 14.0365 81.75 14.1406C81.7604 14.2448 81.7865 14.3385 81.8281 14.4219C81.8802 14.5052 81.9948 14.5677 82.1719 14.6094C82.2031 14.7448 82.2292 14.849 82.25 14.9219C82.2812 14.9844 82.3125 15.0365 82.3438 15.0781C82.3854 15.1198 82.4375 15.1615 82.5 15.2031C82.5625 15.2344 82.6458 15.2865 82.75 15.3594C82.8333 15.3802 82.9271 15.3802 83.0312 15.3594C83.1354 15.3385 83.2188 15.3698 83.2812 15.4531C83.3333 15.401 83.3958 15.375 83.4688 15.375C83.5417 15.3646 83.6094 15.3646 83.6719 15.375L83.875 15.7188C83.9896 15.6354 84.1198 15.5625 84.2656 15.5C84.4115 15.4375 84.5521 15.3854 84.6875 15.3438C84.8438 15.3021 85 15.2656 85.1562 15.2344L86.6094 14.3594ZM80.6094 9.01562C80.5156 9.09896 80.401 9.18229 80.2656 9.26562C80.1302 9.34896 79.9948 9.4375 79.8594 9.53125C79.7344 9.625 79.625 9.72917 79.5312 9.84375C79.4375 9.94792 79.3802 10.0729 79.3594 10.2188C79.1198 10.2604 78.9531 10.3594 78.8594 10.5156C78.7656 10.6719 78.6875 10.8438 78.625 11.0312C78.5625 11.2188 78.4948 11.4062 78.4219 11.5938C78.349 11.7708 78.2188 11.9115 78.0312 12.0156C77.9688 12.0573 77.9115 12.0781 77.8594 12.0781C77.8698 12.0781 77.8385 12.099 77.7656 12.1406C77.651 12.224 77.5521 12.3281 77.4688 12.4531C77.3854 12.5781 77.3125 12.7135 77.25 12.8594C77.1979 13.0052 77.1458 13.1562 77.0938 13.3125C77.0521 13.4583 77.0104 13.5938 76.9688 13.7188C76.8229 13.7396 76.7135 13.7708 76.6406 13.8125C76.5677 13.8542 76.5208 13.901 76.5 13.9531C76.4896 13.9948 76.4948 14.0469 76.5156 14.1094C76.5365 14.1719 76.5677 14.2396 76.6094 14.3125C76.651 14.375 76.6927 14.4479 76.7344 14.5312C76.7865 14.6146 76.8281 14.6979 76.8594 14.7812C76.8906 14.8646 76.9062 14.9479 76.9062 15.0312C76.9167 15.1146 76.8958 15.1927 76.8438 15.2656C76.9896 15.3802 77.1302 15.4062 77.2656 15.3438C77.401 15.2708 77.526 15.1927 77.6406 15.1094C77.6823 15.0781 77.724 15.0469 77.7656 15.0156C77.8177 14.974 77.8698 14.9427 77.9219 14.9219C78.1615 14.974 78.3802 14.9583 78.5781 14.875C78.776 14.7917 78.9583 14.6771 79.125 14.5312C79.2917 14.3854 79.4531 14.2292 79.6094 14.0625C79.7656 13.8958 79.9219 13.75 80.0781 13.625L79.9531 13.5C80.1406 13.4479 80.2708 13.3802 80.3438 13.2969C80.4271 13.2031 80.4792 13.099 80.5 12.9844C80.5208 12.8698 80.5208 12.75 80.5 12.625C80.4792 12.4896 80.4635 12.349 80.4531 12.2031C80.4427 12.1198 80.4375 12.0417 80.4375 11.9688C80.4479 11.8854 80.4688 11.8021 80.5 11.7188C80.4167 11.4792 80.401 11.25 80.4531 11.0312C80.5156 10.8125 80.5938 10.6042 80.6875 10.4062C80.7917 10.1979 80.8906 9.98958 80.9844 9.78125C81.0781 9.57292 81.125 9.35417 81.125 9.125L80.6094 9.01562Z" fill="#FF9F66"/>
</svg>
