<svg width="16" height="16" viewBox="0 0 16 16" fill="none" xmlns="http://www.w3.org/2000/svg">
<path d="M15.8622 11.5824C15.6365 11.3567 15.3959 11.1525 15.1419 10.9697C14.6008 11.5947 13.9654 12.12 13.249 12.5335C12.1394 13.1743 10.8774 13.5164 9.59668 13.5245C10.2767 13.7987 11.0099 13.9426 11.7653 13.9426C13.3129 13.9426 14.7679 13.3399 15.8623 12.2456C15.9502 12.1577 15.9996 12.0384 15.9996 11.9141C15.9996 11.7898 15.9502 11.6704 15.8622 11.5824Z" fill="#FF9F66"/>
<path d="M0.857656 10.9697C0.603656 11.1525 0.363063 11.3567 0.137313 11.5824C0.0494063 11.6704 0 11.7898 0 11.9141C0 12.0384 0.0494063 12.1577 0.137313 12.2456C1.23166 13.3399 2.68666 13.9426 4.23428 13.9426C4.98966 13.9426 5.72284 13.7987 6.40291 13.5245C5.12213 13.5164 3.86019 13.1743 2.75044 12.5334C2.03412 12.12 1.39875 11.5947 0.857656 10.9697Z" fill="#FF9F66"/>
<path d="M3.21999 11.7216C3.99927 12.1716 4.90524 12.4734 5.87115 12.5608C4.20212 11.6371 3.30009 10.3545 2.87549 9.61911C2.40855 8.81043 2.09296 7.93421 1.93602 7.01221C1.46974 7.03221 1.00555 7.10183 0.55393 7.22186C0.34768 7.27111 0.194336 7.45677 0.194336 7.67808C0.194336 7.71908 0.199711 7.75989 0.210336 7.79949C0.689086 9.58518 1.85802 10.9354 3.21999 11.7216Z" fill="#FF9F66"/>
<path d="M10.1294 12.5608C11.0953 12.4733 12.0013 12.1716 12.7806 11.7216C14.1425 10.9354 15.3115 9.58514 15.7902 7.79949C15.8009 7.75989 15.8062 7.71908 15.8062 7.67808C15.8062 7.45677 15.6529 7.27111 15.4466 7.22186C14.995 7.10183 14.5308 7.03218 14.0646 7.01221C13.9076 7.93421 13.592 8.81043 13.1251 9.61911C12.7005 10.3545 11.7995 11.6364 10.1294 12.5608Z" fill="#FF9F66"/>
<path d="M5.85287 11.4542C5.37921 10.6891 4.64361 9.22043 4.64361 7.20721C4.64361 6.18702 4.83246 5.19468 5.2044 4.25318C4.69208 3.96096 4.14277 3.73371 3.57086 3.58052C3.32074 3.51358 3.06383 3.6619 2.9968 3.91193C2.48518 5.82061 2.84602 7.69514 3.6863 9.15039C4.19646 10.034 4.92908 10.8414 5.85287 11.4542Z" fill="#FF9F66"/>
<path d="M10.1465 11.4545C11.0705 10.8416 11.8033 10.0341 12.3135 9.1504C13.1538 7.69512 13.5146 5.82062 13.003 3.91194C12.936 3.66191 12.679 3.51356 12.4289 3.58053C11.8569 3.73372 11.3076 3.96103 10.7952 4.25331C11.1671 5.19475 11.3559 6.18706 11.3559 7.20722C11.356 9.22215 10.619 10.6912 10.1465 11.4545Z" fill="#FF9F66"/>
<path d="M8.33102 2.16856C8.24312 2.08066 8.12362 2.03125 7.99931 2.03125C7.87499 2.03125 7.75577 2.08066 7.66787 2.16856C6.44009 3.39634 5.58099 5.16872 5.58099 7.20703C5.58099 9.24628 6.44106 11.0187 7.66787 12.2455C7.75577 12.3334 7.87527 12.3828 7.99959 12.3828C8.1239 12.3828 8.24312 12.3334 8.33102 12.2455C9.55752 11.019 10.4179 9.24675 10.4179 7.20703C10.4179 5.16778 9.55818 3.39566 8.33102 2.16856Z" fill="#FF9F66"/>
</svg>
