<svg width="12" height="11" viewBox="0 0 12 11" fill="none" xmlns="http://www.w3.org/2000/svg">
<path d="M7.94469 3.78793L8.0575 3.30082L7.94469 3.78793L10.7841 4.44555L8.87351 6.64654C8.74925 6.78969 8.68836 6.9771 8.70475 7.16594L8.95675 10.0696L6.27306 8.93266L6.07802 9.39305L6.27306 8.93266C6.09853 8.85872 5.90147 8.85872 5.72694 8.93266L5.92198 9.39305L5.72694 8.93266L3.04325 10.0696L3.29525 7.16594C3.31164 6.9771 3.25075 6.78969 3.12649 6.64655L2.74891 6.97431L3.12649 6.64654L1.21588 4.44555L4.05531 3.78793C4.23997 3.74516 4.3994 3.62933 4.49714 3.46692L4.06873 3.20911L4.49714 3.46692L6 0.969679L7.50286 3.46692L7.93127 3.20911L7.50286 3.46692C7.6006 3.62933 7.76003 3.74516 7.94469 3.78793Z" stroke="#FF9F66"/>
</svg>
