<svg width="12" height="11" viewBox="0 0 12 11" fill="none" xmlns="http://www.w3.org/2000/svg">
<path d="M5.82864 0.284744C5.90637 0.15558 6.09363 0.15558 6.17136 0.284744L7.93127 3.20911C7.95919 3.25551 8.00474 3.2886 8.0575 3.30082L11.3826 4.07091C11.5294 4.10493 11.5873 4.28302 11.4885 4.39686L9.25109 6.97431C9.21559 7.01521 9.19819 7.06876 9.20288 7.12271L9.49798 10.523C9.51101 10.6732 9.35952 10.7833 9.22071 10.7245L6.07802 9.39305C6.02815 9.37193 5.97185 9.37193 5.92198 9.39305L2.77929 10.7245C2.64048 10.7833 2.48899 10.6732 2.50202 10.523L2.79712 7.12271C2.80181 7.06876 2.78441 7.01521 2.74891 6.97431L0.511515 4.39686C0.412694 4.28302 0.47056 4.10493 0.617423 4.07091L3.9425 3.30082C3.99526 3.2886 4.04081 3.25551 4.06873 3.20911L5.82864 0.284744Z" fill="#FF9F66"/>
</svg>
